<?xml version="1.0" encoding="utf-8"?>
<!-- Generator: Adobe Illustrator 25.1.0, SVG Export Plug-In . SVG Version: 6.00 Build 0)  -->
<svg version="1.1" id="Calque_1" xmlns="http://www.w3.org/2000/svg" xmlns:xlink="http://www.w3.org/1999/xlink" x="0px" y="0px"
	 viewBox="0 0 729 592.6" style="enable-background:new 0 0 729 592.6;" xml:space="preserve">
<style type="text/css">
	.st0{fill:#FFFFFF;}
</style>
<g id="Groupe_11" transform="translate(0.5 3.5)">
	<g id="Groupe_7" transform="translate(0 -3)">
		<path id="Tracé_10" class="st0" d="M623.9,44.8h-520c-9,0-16.3-10.1-16.3-22.6S95-0.5,104-0.5h520c9,0,16.3,10.1,16.3,22.6
			S632.9,44.8,623.9,44.8z"/>
	</g>
	<g id="Groupe_9" transform="translate(0 4)">
		<path id="Tracé_12" class="st0" d="M623.9,220.2h-520c-9,0-16.3-10.1-16.3-22.6s7.3-22.6,16.3-22.6h520c9,0,16.3,10.1,16.3,22.6
			S632.9,220.2,623.9,220.2z"/>
	</g>
	<g id="Groupe_10" transform="translate(0 18)">
		<path id="Tracé_13" class="st0" d="M623.9,571.1h-520c-9,0-16.3-10.1-16.3-22.6s7.3-22.6,16.3-22.6h520c9,0,16.3,10.1,16.3,22.6
			S632.9,571.1,623.9,571.1z"/>
	</g>
	<g id="Groupe_52" transform="translate(0 11)">
		<path id="Tracé_12-2" class="st0" d="M623.9,395.7h-520c-9,0-16.3-10.1-16.3-22.6s7.3-22.6,16.3-22.6h520
			c9,0,16.3,10.1,16.3,22.6S632.9,395.7,623.9,395.7z"/>
	</g>
</g>
</svg>
