<?xml version="1.0" encoding="utf-8"?>
<!-- Generator: Adobe Illustrator 22.1.0, SVG Export Plug-In . SVG Version: 6.00 Build 0)  -->
<svg version="1.1" id="Calque_1" xmlns="http://www.w3.org/2000/svg" xmlns:xlink="http://www.w3.org/1999/xlink" x="0px" y="0px"
	 viewBox="0 0 3591.5 932.7" style="enable-background:new 0 0 3591.5 932.7;" xml:space="preserve">
<style type="text/css">
	.st0{fill:#F18A00;}
	.st1{fill:#FFFFFF;}
</style>
<g id="XMLID_1_">
	<g id="XMLID_154_">
		<path id="XMLID_71_" class="st0" d="M595.5,532.5c-49.3,39.4-185.9,147.2-266,194.9c-1.1-9.3,92-235.7,116.7-296.5
			C489.9,323.6,605.7,43.4,624,0C609.2-2,45.2,149.5,19.8,156.6C2.9,161.3-4.7,163.8,3,184.4c2.2,7,62.8,272.3,70.4,274.6
			c4.6,1.4-2.2-3.5,2.3-4.5C100.8,449,226.4,406,268,399.1c-17,98.4-38.2,175.4-58.4,273.9c-24.7,120.6-20.7,205.1-20.7,259.7
			c10.1,0.2,501-193.4,496.9-207.9C678.7,699.9,613.5,578.9,595.5,532.5z"/>
		<g id="XMLID_164_">
			<g>
				<path id="XMLID_31_" class="st0" d="M898.4,236.5c-18.6-18.5-36.8-39-61-50.4c-26.3-12.4-51.7-20.1-80.2-23.1
					c-90-9.7-175.2,74.6-204.2,152.7c-33.4,89.9-45,182.8-5,273.7c27.6,62.7,72.5,116.6,139.8,137c68.3,20.7,133-5.1,183.6-51.7
					C991.3,564.3,986.5,363.2,898.4,236.5z M784.5,600.4c-69,6.9-100.9-48.7-107.8-117.2c-6.9-68.5,31.9-135.3,81.9-140.4
					c50-5,101.3,52.7,108.2,121.2C873.7,532.6,840.8,594.8,784.5,600.4z"/>
			</g>
		</g>
		<g id="XMLID_155_">
			<g>
				<path id="XMLID_28_" class="st0" d="M1413.7,405.7c-5.7-25-10.1-51.4-24.1-73.4c-15.3-23.9-32.3-43.5-54.2-60.9
					c-69.4-54.9-183.7-29.6-248.3,19.9c-74.4,56.9-132.4,127.7-146.6,223.6c-9.8,66.2-0.8,134.1,44.3,186
					c45.7,52.6,112.6,65.1,178.7,52.9C1319.8,724.9,1420.5,556.3,1413.7,405.7z M1130,647.1c-60.6-30.2-58-92.8-28-153
					s96.8-95.2,140.7-73.4c43.9,21.9,56.3,96.3,26.3,156.5C1239,637.5,1179.5,671.8,1130,647.1z"/>
			</g>
		</g>
	</g>
	<g id="XMLID_130_">
		<g id="XMLID_147_">
			<path class="st1" d="M2194,335.6c-11.4-10.1-28.9-15.1-52.6-15.1c-23.8,0-48.3,3.3-73.7,9.8c-25.7,6.8-49.4,16-71.3,27.6
				c-22.4,12-37.6,24.5-45.5,37.5c-7.4,11.5-7.8,28.5-1.2,51.2c6.3,22.8,21.7,33.5,46.3,32c12-0.7,22.1-4.3,30.3-10.9
				c6.8-5.6,14.6-12.8,23.4-21.5c8.4-7.9,17.2-14.8,26.2-20.5c9.3-6.3,22.1-9.6,38.5-9.8c4,0,10.2,3.6,18.6,10.7
				c8.1,6.8,14.8,15,20.3,24.4c5.3,9.6,7.7,19.1,7.2,28.7c-1,10.1-8.1,17.7-21.5,22.9c-2.2,1-3.7,1.4-4.5,1.4
				c-1,0.4-20-7.4-57.1-23.3c-16.5-6.8-34.6-7.4-54.1-1.6c-19.8,6.2-37.4,16.2-52.6,30.1c-15.9,14.2-28.3,31.3-37.3,51.2
				c-8.6,19.9-10.8,40.4-6.6,61.4c4.5,21.2,16.4,39.3,35.6,54.5c18.8,15.3,40.9,27.4,66.1,36.5c25,8.9,50.2,14.2,75.8,16
				c25.5,2.1,46.8,0.4,63.9-4.9c30.9-10.1,53.9-32,69-65.8c15.3-34.3,23.5-71.5,24.8-111.8c1.4-40.8-3.8-80.8-15.5-120
				C2234.6,386.8,2217.1,356.6,2194,335.6z M2128.3,629.4c-5.9,4.9-12.7,7.2-20.5,6.8c-8.9,0-19.9-2.4-33.2-7.2
				c-13.4-4.7-22.1-11.6-26-20.9c-3.7-8.9-1.4-16.9,6.8-24.2c8.2-7.2,16.9-10.9,26-10.9c8.6,0,18.5,4.3,29.7,12.9
				c10.5,8.2,17.6,16.2,21.1,24.2C2135.3,618.1,2134,624.5,2128.3,629.4z"/>
		</g>
		<g id="XMLID_64_">
			<path class="st1" d="M2437,562.7c-8.2-0.5-17.4,4.7-27.7,15.8c-10.4,11-15.9,13.2-16.7,6.4c-3.7-24.6-3.8-48.4-0.3-71.6
				c3.5-23.1,7.5-45.3,12-66.5s8.1-41.4,10.6-60.6c2.6-19.2,1.3-37.2-3.9-54c-2.3-7.4-9-12.9-20.2-16.6s-23.1-5.5-35.8-5.3
				c-12.7,0.1-24.3,2.2-34.9,6c-10.6,3.9-16.5,9.6-17.7,17.1c-10.5,65.8-16.7,130.3-18.6,193.6c-1.9,63.3,4.2,126.5,18.2,189.5
				c2.4,11.1,17.2,15.4,44.2,13s49.6-7.3,67.6-14.9c9.7-3.9,18.1-13.9,25.2-30c7.1-16,12.1-33,14.8-50.8c2.8-17.8,3-33.9,0.6-48.3
				C2452.2,571.1,2446.3,563.5,2437,562.7z"/>
		</g>
		<g id="XMLID_63_">
			<path class="st1" d="M2589.1,390.2c-5.8-29.6-14.3-52.9-25.6-69.8c-2.9-4.2-9.9-6.3-21.2-6.2c-11.3,0.1-22.9,1.6-35,4.7
				s-22.7,7.5-31.9,13.1c-9.2,5.7-13.3,12-12.2,19c10.1,64.3,15.5,124.6,16.3,181c0.7,56.4-2.6,111.6-10.1,165.7
				c-1.5,11.1,4.1,18.8,16.8,23.1c12.7,4.4,27,6,43,4.8c15.9-1.2,30.9-4.8,44.8-11c13.8-6.1,21.2-14.2,22.2-24.4
				c2.5-29.3,4.3-62,5.4-97.9c1.1-35.9,0.8-71.2-1-105.8C2598.6,452,2594.8,419.9,2589.1,390.2z"/>
		</g>
		<g id="XMLID_134_">
			<path class="st1" d="M2938.8,426.1c-11.9-39.3-29.4-69.5-52.4-90.5c-11.3-10.1-28.9-15.1-52.6-15.1c-23.8,0-48.3,3.3-73.7,9.8
				c-25.7,6.8-49.4,16-71.3,27.6c-22.4,12-37.5,24.5-45.4,37.5c-7.4,11.5-7.8,28.5-1.2,51.2c6.2,22.8,21.7,33.5,46.2,32
				c12.1-0.7,22.1-4.3,30.3-10.9c6.8-5.6,14.6-12.8,23.3-21.5c8.5-7.9,17.2-14.8,26.2-20.5c9.3-6.3,22.1-9.6,38.5-9.8
				c4,0,10.2,3.6,18.6,10.7c8.1,6.8,14.8,15,20.3,24.4c5.3,9.6,7.7,19.1,7.1,28.7c-0.9,10.1-8.1,17.7-21.5,22.9
				c-2.2,1-3.7,1.4-4.5,1.4c-1,0.4-20-7.4-57.2-23.3c-16.5-6.8-34.5-7.4-54.1-1.6c-19.8,6.2-37.3,16.2-52.6,30.1
				c-15.8,14.2-28.3,31.3-37.3,51.2c-8.6,19.9-10.8,40.4-6.6,61.4c4.5,21.2,16.4,39.3,35.6,54.5c18.8,15.3,40.9,27.4,66.2,36.5
				c25,8.9,50.2,14.2,75.8,16c25.5,2.1,46.8,0.4,63.9-4.9c30.9-10.1,53.9-32,69-65.8c15.3-34.3,23.6-71.5,24.8-111.8
				C2955.7,505.3,2950.5,465.3,2938.8,426.1z M2820.6,629.4c-5.9,4.9-12.7,7.2-20.5,6.8c-8.9,0-19.9-2.4-33.2-7.2
				c-13.4-4.7-22.1-11.6-26-20.9c-3.7-8.9-1.4-16.9,6.7-24.2c8.2-7.2,16.9-10.9,26-10.9c8.6,0,18.5,4.3,29.7,12.9
				c10.5,8.2,17.5,16.2,21.1,24.2C2827.7,618.1,2826.3,624.5,2820.6,629.4z"/>
		</g>
		<g id="XMLID_60_">
			<path class="st1" d="M1821.8,332.4c-88.5-24.8-117.7,41.1-145.4,39.3v-0.8c-0.7,0.2-1.4,0.4-2.2,0.5c-0.6-0.1-1.3-0.2-2.1-0.5
				v0.8c-27.8,1.8-56.9-64.1-145.5-39.3c-56,15.6-88.9,76.5-88.9,134.9c0.2,5.7,0.6,11.3,1.2,16.9c7.8,77.6,34,169.8,103.2,214.5
				c38.8,25.1,107.1,15.7,112.5-40.7c4.9-52.1-74.5-103-98.4-145.4c-28.7-50.9,9.2-112.6,59.4-63.5c9.9,9.7,32.4,60.1,56.6,63.7v0.2
				c0.7,0.1,1.4-0.1,2.1-0.2c0.7,0.1,1.4,0.2,2.2,0.2v-0.2c24.2-3.7,46.6-54,56.5-63.7c50.4-49.2,88.2,12.6,59.5,63.5
				C1768.6,555,1689,605.9,1694,658c5.4,56.4,73.6,65.9,112.4,40.7c69.2-44.8,95.5-136.9,103.2-214.5c0.5-5.6,0.9-11.2,1.2-16.9
				C1910.9,408.9,1877.9,348,1821.8,332.4z"/>
		</g>
	</g>
	<g id="XMLID_59_">
		<path class="st0" d="M2560.3,196.9c0,44.1-36.3,79.8-81.1,79.8s-81.1-35.7-81.1-79.8s36.3-79.8,81.1-79.8
			C2524,117.1,2560.3,152.9,2560.3,196.9z"/>
	</g>
</g>
<g>
	<path class="st1" d="M3017.6,726.7H2976v-36.5h41.6V726.7z"/>
	<path class="st1" d="M3120.7,697.8c7.2,0,12.9-2.2,17.3-6.5c4.2-4.3,6.4-10.1,6.4-17.3h37.8l0.2,0.8c0.3,15.5-5.4,28.6-17.4,39.1
		c-12,10.5-26.7,15.8-44.5,15.8c-22.7,0-40.4-7.3-52.8-21.8c-12.5-14.5-18.6-33.1-18.6-55.9v-4.2c0-22.6,6.2-41.3,18.6-55.9
		c12.3-14.6,29.9-21.9,52.6-21.9c18.7,0,33.9,5.4,45.4,16.2c11.4,10.9,17,25,16.7,42.8l-0.2,0.8h-37.8c0-8-2.1-14.6-6.3-19.9
		c-4.2-5.3-10.1-7.9-17.6-7.9c-10.7,0-18.3,4.3-22.9,12.9c-4.5,8.6-6.7,19.5-6.7,32.9v4.2c0,13.7,2.3,24.7,6.7,33.1
		C3102.1,693.6,3109.7,697.8,3120.7,697.8z"/>
	<path class="st1" d="M3200.2,648.3c0-23,6.4-41.7,19.2-56.5c12.8-14.6,30.5-21.9,53.3-21.9s40.6,7.3,53.5,21.9
		c12.9,14.6,19.3,33.5,19.3,56.5v3c0,23.2-6.4,42.1-19.3,56.6c-12.9,14.5-30.6,21.8-53.3,21.8c-22.7,0-40.6-7.3-53.5-21.8
		s-19.3-33.4-19.3-56.6v-3H3200.2z M3241.6,651.3c0,14.1,2.5,25.3,7.4,33.8c4.9,8.5,12.9,12.7,23.9,12.7c10.7,0,18.6-4.2,23.5-12.8
		c5-8.6,7.4-19.8,7.4-33.7v-3c0-13.7-2.5-24.8-7.5-33.5c-5-8.7-12.9-12.9-23.8-12.9c-10.7,0-18.6,4.3-23.5,13
		c-5,8.7-7.4,19.8-7.4,33.4L3241.6,651.3L3241.6,651.3z"/>
	<path class="st1" d="M3409.8,572.6l1.7,20.3c4.9-7.4,11.1-13.1,18.6-17.1c7.4-4,16.1-6.1,25.8-6.1c9.8,0,18.3,2.2,25.4,6.5
		c7,4.3,12.3,11,15.9,19.8c4.8-8.2,10.9-14.7,18.5-19.3c7.5-4.7,16.5-7,26.7-7c15.2,0,27.2,5.4,35.9,16.1
		c8.8,10.7,13.1,27.2,13.1,49.3v91.3h-41.6v-91.3c0-12.3-1.9-20.9-5.7-25.7s-9.5-7.3-16.9-7.3c-5.8,0-11,1.3-15.3,3.9
		c-4.3,2.6-7.8,6.3-10.3,10.9c0,1.8,0,3.3,0.1,4.6c0.1,1.3,0.1,2.6,0.1,3.9v101.2h-41.4v-91.3c0-12-1.9-20.6-5.7-25.6
		c-3.8-5-9.5-7.4-17-7.4c-5.6,0-10.5,1-14.7,3.2c-4.2,2.2-7.7,5.1-10.5,9v112.4h-41.4V572.6H3409.8z"/>
</g>
</svg>
