<?xml version="1.0" encoding="utf-8"?>
<!-- Generator: Adobe Illustrator 25.1.0, SVG Export Plug-In . SVG Version: 6.00 Build 0)  -->
<svg version="1.1" id="Calque_1" xmlns="http://www.w3.org/2000/svg" xmlns:xlink="http://www.w3.org/1999/xlink" x="0px" y="0px"
	 viewBox="0 0 219.9 223.6" style="enable-background:new 0 0 219.9 223.6;" xml:space="preserve">
<style type="text/css">
	.st0{fill:#F18921;}
	.st1{fill:#FFFFFF;}
</style>
<g id="logo-tampon-zoomalia" transform="translate(1.762 2.758)">
	<path id="XMLID_34_" class="st0" d="M137.7,121.3c-11.3,9.2-23.1,17.8-35.3,25.8c-0.1-1.2,12.2-31.3,15.5-39.3
		c5.8-14.2,21.2-51.4,23.6-57.1c-2-0.3-76.7,19.8-80.1,20.8c-2.2,0.6-3.3,1-2.2,3.7c0.3,0.9,8.3,36.1,9.3,36.4
		c0.6,0.2-0.3-0.5,0.3-0.6c3.3-0.7,20-6.4,25.5-7.3c-2.3,13-5.1,23.2-7.7,36.3c-2.2,11.3-3.2,22.9-2.7,34.4
		c1.3,0,66.4-25.6,65.9-27.6C148.8,143.5,140.1,127.5,137.7,121.3z"/>
	<g id="Groupe_24" transform="translate(-1.762 -2.758)">
		<path id="Tracé_24" class="st1" d="M34.9,49c-0.7-0.7-0.8-1.3-1.1-3l-2.1-17.4l-7.6,7.9c-0.4,0.6-1.2,0.7-1.8,0.3
			c-0.1-0.1-0.2-0.1-0.2-0.2L22,36.5c-0.5-0.5-0.6-1.3-0.1-1.8c0.1-0.1,0.1-0.1,0.2-0.2l8.9-9.3c1.1-1.1,2-1.1,2.6-0.5l0.2,0.2
			c0.7,0.8,1,1.8,1,2.9l2.1,17.6L45,37c0.4-0.6,1.2-0.7,1.8-0.3c0.1,0.1,0.2,0.1,0.2,0.2l0.1,0.1c0.5,0.5,0.6,1.3,0.1,1.8
			c-0.1,0.1-0.1,0.1-0.2,0.2l-9.3,9.7c-1.1,1.1-2.1,1.1-2.7,0.5L34.9,49z"/>
		<path id="Tracé_25" class="st1" d="M55.9,24.3c-2.9-5.1-1.1-11.5,4-14.4c0.2-0.1,0.5-0.3,0.8-0.4c5.4-2.9,12.1-0.8,14.9,4.6
			c2.9,5.4,0.8,12.1-4.6,14.9C65.5,32,58.8,29.9,56,24.5C56,24.5,55.9,24.4,55.9,24.3z M72.1,16.3c-1.5-3.8-5.9-5.7-9.7-4.2
			c-0.2,0.1-0.3,0.1-0.5,0.2c-4.2,1.6-6.2,6.3-4.6,10.5c1.6,4.2,6.3,6.2,10.5,4.6c4.2-1.6,6.2-6.3,4.6-10.5
			C72.3,16.6,72.2,16.5,72.1,16.3z"/>
		<path id="Tracé_26" class="st1" d="M91.2,11.7c-0.8-5.8,3.2-11.1,9-11.9c0.3,0,0.6-0.1,0.8-0.1c5.7-0.7,10.9,3.5,11.5,9.2
			c0,0.3,0.1,0.6,0.1,1c0.5,5.9-3.9,11.1-9.8,11.6C96.9,22,91.7,17.6,91.2,11.7L91.2,11.7z M109.3,10.2c0-4.1-3.3-7.5-7.4-7.5
			c-0.2,0-0.4,0-0.6,0c-4.1,0.4-7.1,3.9-6.7,8c0,0.2,0,0.4,0.1,0.6c-0.2,4.1,3,7.5,7.1,7.7c4.1,0.2,7.5-3,7.7-7.1
			C109.4,11.4,109.4,10.8,109.3,10.2L109.3,10.2z"/>
		<path id="Tracé_27" class="st1" d="M132.8,3c0.2-1,1.2-1.5,2.2-1.3c0.1,0,0.2,0,0.2,0.1l0.8,0.3c1.3,0.4,1.4,1,1.6,2.3l1.4,12.3
			l8.2-9.3c0.9-1,1.4-1.3,2.6-1l0.8,0.3c1,0.2,1.6,1.2,1.4,2.1c0,0.1,0,0.2-0.1,0.2l-5.4,17.3c-0.3,1-0.9,1.3-1.8,1.1l-0.4-0.2
			c-0.9-0.3-1.1-0.9-0.8-1.9l4.7-14.9l-7.7,8.7c-0.8,1-2.3,1.1-3.3,0.3c-0.5-0.4-0.8-1-0.8-1.6l-1.3-11.4l-4.6,14.8
			c-0.3,1-0.8,1.3-1.8,1.1l-0.5-0.2c-0.9-0.3-1.1-0.9-0.8-1.9L132.8,3z"/>
		<path id="Tracé_28" class="st1" d="M157,30.4l18-10.7c0.6-0.4,1.3-0.4,2.5,0.6s1.4,1.6,1.2,2.3l-6.1,20.1
			c-0.1,0.3-1.3,0.3-2.1-0.3c-0.7-0.6-1-1.6-0.6-2.5l1.5-5l-6.7-5.2l-4.5,2.7c-0.7,0.6-1.7,0.6-2.4,0.1
			C157.1,31.8,156.8,30.6,157,30.4z M172.5,32.2l2.9-9.2l-8.2,5L172.5,32.2z"/>
		<path id="Tracé_29" class="st1" d="M184,55.1l14.9-10c0.5-0.5,1.4-0.5,1.9,0.1c0.1,0.1,0.1,0.1,0.2,0.2l0.3,0.4
			c0.5,0.6,0.4,1.4-0.2,1.9c-0.1,0.1-0.2,0.1-0.3,0.2l-13.9,9.3l5.1,7.7c0.5,0.5,0.5,1.4-0.1,1.9c-0.1,0.1-0.2,0.1-0.3,0.2l-0.1,0.1
			c-0.6,0.5-1.5,0.4-1.9-0.2c-0.1-0.1-0.1-0.2-0.2-0.3l-6-9c-0.6-0.8-0.4-1.9,0.4-2.4C183.9,55.1,184,55.1,184,55.1z"/>
		<path id="Tracé_30" class="st1" d="M212.3,72.8c0.7-0.4,1.5-0.1,1.8,0.5c0.1,0.1,0.1,0.2,0.1,0.3l0.2,0.4c0.3,0.7,0,1.5-0.6,1.8
			c-0.1,0.1-0.2,0.1-0.3,0.1l-17.3,6.3c-0.7,0.4-1.5,0.1-1.8-0.5c-0.1-0.1-0.1-0.2-0.1-0.3l-0.2-0.4c-0.3-0.7,0-1.5,0.6-1.8
			c0.1,0,0.2-0.1,0.3-0.1L212.3,72.8z"/>
		<path id="Tracé_31" class="st1" d="M198.5,94.1l20.1,5.8c0.7,0.2,1.1,0.7,1.3,2.2c0.1,1.6-0.2,2.1-0.9,2.4l-18.8,9.3
			c-0.3,0.1-1.1-0.8-1.2-1.8c-0.1-0.9,0.5-1.8,1.4-2.1l4.6-2.3l-0.7-8.5l-5-1.4c-0.9-0.1-1.6-0.8-1.7-1.7
			C197.5,95.1,198.2,94,198.5,94.1z M207.7,106.6l8.7-4.2l-9.3-2.6L207.7,106.6z"/>
		<path id="Tracé_32" class="st1" d="M205.9,144.3c-0.7,2-2.8,3-4.8,2.4c-2-0.7-3-2.8-2.4-4.8c0.6-1.9,2.7-3,4.6-2.3c0,0,0,0,0.1,0
			c2,0.6,3.1,2.7,2.5,4.6C205.9,144.2,205.9,144.2,205.9,144.3z"/>
		<path id="Tracé_33" class="st1" d="M185.8,173.3c0.7,0.7,0.9,1.3,1.1,2.9l2.4,17.4l7.4-8.1c0.4-0.6,1.2-0.8,1.8-0.4
			c0.1,0.1,0.2,0.1,0.2,0.2l0.1,0.1c0.6,0.4,0.7,1.2,0.2,1.8c-0.1,0.1-0.1,0.2-0.2,0.2l-8.7,9.4c-1.1,1.1-2,1.1-2.6,0.5l-0.2-0.2
			c-0.7-0.8-1.1-1.8-1.1-2.9l-2.4-17.6l-7.9,8.5c-0.4,0.6-1.2,0.8-1.8,0.4c-0.1-0.1-0.2-0.1-0.2-0.2l-0.1-0.1
			c-0.6-0.4-0.7-1.2-0.2-1.8c0.1-0.1,0.1-0.2,0.2-0.2l9.1-9.9c1.1-1.1,2-1.1,2.7-0.5L185.8,173.3z"/>
		<path id="Tracé_34" class="st1" d="M165.5,198.2c3,5,1.3,11.4-3.7,14.4c-0.2,0.1-0.5,0.3-0.8,0.4c-5.3,3-12.1,1-15-4.3
			c-3-5.3-1-12.1,4.3-15c5.3-3,12.1-1,15,4.3C165.4,198.1,165.4,198.1,165.5,198.2z M149.4,206.6c1.6,3.8,6,5.6,9.8,4
			c0.2-0.1,0.3-0.2,0.5-0.2c4.1-1.7,6.1-6.4,4.4-10.6c-1.7-4.1-6.4-6.1-10.6-4.4c-4.1,1.7-6.1,6.4-4.4,10.6
			C149.2,206.2,149.3,206.4,149.4,206.6z"/>
		<path id="Tracé_35" class="st1" d="M130.4,211.5c0.9,5.8-3.1,11.1-8.8,12c-0.3,0-0.5,0.1-0.8,0.1c-6.1,0.8-11.6-3.5-12.4-9.6
			c-0.8-6.1,3.5-11.6,9.6-12.4c6.1-0.8,11.6,3.5,12.4,9.6C130.4,211.3,130.4,211.4,130.4,211.5z M112.4,213.3
			c0.1,4.1,3.5,7.4,7.6,7.4c0.2,0,0.4,0,0.5,0c4.5-0.1,8-3.7,8-8.2c-0.1-4.5-3.7-8-8.2-8c-4.5,0.1-8,3.7-8,8.2
			C112.4,212.8,112.4,213.1,112.4,213.3z"/>
		<path id="Tracé_36" class="st1" d="M89,220.9c-0.2,1-1.2,1.5-2.1,1.3c-0.1,0-0.2,0-0.3-0.1l-0.9-0.3c-1.3-0.4-1.5-0.9-1.6-2.3
			l-1.6-12.3l-8.1,9.5c-0.9,1.1-1.3,1.4-2.6,1l-0.8-0.2c-1-0.2-1.6-1.1-1.5-2.1c0-0.1,0-0.2,0.1-0.2l5.1-17.4c0.3-1,0.8-1.3,1.8-1.1
			l0.5,0.1c0.9,0.3,1.1,0.9,0.9,1.9l-4.4,15l7.5-8.8c0.8-1,2.3-1.2,3.3-0.3c0.5,0.4,0.8,0.9,0.9,1.6l1.5,11.4l4.4-14.9
			c0.3-1,0.8-1.3,1.8-1.1l0.5,0.2c0.9,0.3,1.1,0.9,0.8,1.9L89,220.9z"/>
		<path id="Tracé_37" class="st1" d="M64.2,193.8l-17.8,11c-0.6,0.4-1.3,0.4-2.5-0.5s-1.4-1.6-1.2-2.3l5.7-20.2
			c0.1-0.3,1.3-0.3,2.1,0.3c0.8,0.6,1,1.6,0.7,2.5l-1.4,5l6.8,5.1L61,192c0.7-0.6,1.7-0.6,2.4-0.1C64.2,192.5,64.5,193.6,64.2,193.8
			z M48.8,192.3l-2.7,9.2l8.2-5.1L48.8,192.3z"/>
		<path id="Tracé_38" class="st1" d="M36.7,169.9l-14.7,10.3c-0.5,0.5-1.3,0.5-1.8,0c-0.1-0.1-0.2-0.2-0.2-0.3l-0.3-0.4
			c-0.5-0.6-0.4-1.4,0.1-1.9c0.1-0.1,0.2-0.1,0.3-0.2l13.8-9.6l-5.3-7.6c-0.5-0.5-0.5-1.4,0-1.9c0.1-0.1,0.2-0.2,0.3-0.2l0.1-0.1
			c0.6-0.5,1.4-0.4,1.9,0.1c0.1,0.1,0.2,0.2,0.2,0.3l6.2,8.9c0.6,0.8,0.4,1.9-0.3,2.4C36.8,169.8,36.7,169.9,36.7,169.9z"/>
		<path id="Tracé_39" class="st1" d="M8.1,152.8c-0.6,0.4-1.5,0.1-1.8-0.5c-0.1-0.1-0.1-0.2-0.1-0.3L6,151.5
			c-0.3-0.7-0.1-1.5,0.6-1.8c0.1-0.1,0.2-0.1,0.3-0.1l17.2-6.6c0.6-0.4,1.5-0.1,1.8,0.5c0.1,0.1,0.1,0.2,0.1,0.3l0.2,0.4
			c0.3,0.7,0.1,1.5-0.6,1.8c-0.1,0-0.2,0.1-0.3,0.1L8.1,152.8z"/>
		<path id="Tracé_40" class="st1" d="M21.6,131.2l-20.2-5.4c-0.7-0.2-1.2-0.7-1.3-2.2s0.2-2.1,0.8-2.4l18.6-9.7
			c0.3-0.1,1.1,0.7,1.2,1.8c0.1,0.9-0.5,1.8-1.3,2.2l-4.6,2.4l0.9,8.5l5,1.3c1.2,0.3,1.7,1,1.7,1.7
			C22.5,130.2,21.9,131.2,21.6,131.2z M12.1,118.9l-8.6,4.3l9.3,2.4L12.1,118.9z"/>
		<path id="Tracé_41" class="st1" d="M13.3,81.1c0.6-2,2.8-3.1,4.8-2.5c2,0.6,3.1,2.8,2.5,4.8c-0.6,1.9-2.6,3-4.6,2.4
			c0,0-0.1,0-0.1,0C13.8,85.3,12.7,83.2,13.3,81.1C13.3,81.2,13.3,81.2,13.3,81.1z"/>
	</g>
</g>
</svg>
