<?xml version="1.0" encoding="utf-8"?>
<!-- Generator: Adobe Illustrator 22.1.0, SVG Export Plug-In . SVG Version: 6.00 Build 0)  -->
<svg version="1.1" id="Calque_1" xmlns="http://www.w3.org/2000/svg" xmlns:xlink="http://www.w3.org/1999/xlink" x="0px" y="0px"
	 viewBox="0 0 1144 360" style="enable-background:new 0 0 1144 360;" xml:space="preserve">
<style type="text/css">
	.st0{fill:#F18A00;}
	.st1{fill:#57595B;}
</style>
<g id="XMLID_1_">
	<g id="XMLID_154_">
		<path id="XMLID_71_" class="st0" d="M234.1,205.3c-19,15.2-71.7,56.8-102.6,75.2c-0.4-3.6,35.5-90.9,45-114.4
			c16.9-41.4,61.5-149.5,68.6-166.2c-5.7-0.8-223.2,57.7-233,60.4C5.6,62.1,2.6,63,5.6,71c0.8,2.7,24.2,105,27.2,105.9
			c1.8,0.5-0.8-1.3,0.9-1.7c9.7-2.1,58.1-18.7,74.2-21.4c-6.6,38-14.7,67.7-22.5,105.6c-9.5,46.5-8,79.1-8,100.2
			c3.9,0.1,193.2-74.6,191.7-80.2C266.2,269.8,241.1,223.2,234.1,205.3z"/>
		<g id="XMLID_164_">
			<g>
				<path id="XMLID_31_" class="st0" d="M351,91.1c-7.2-7.1-14.2-15-23.5-19.4c-10.1-4.8-19.9-7.8-30.9-8.9
					c-34.7-3.7-67.6,28.8-78.8,58.9c-12.9,34.7-17.4,70.5-1.9,105.6c10.6,24.2,28,45,53.9,52.8c26.3,8,51.3-2,70.8-19.9
					C386.8,217.5,384.9,140,351,91.1z M307,231.4c-26.6,2.7-38.9-18.8-41.6-45.2s12.3-52.2,31.6-54.2c19.3-1.9,39.1,20.3,41.7,46.7
					C341.4,205.3,328.7,229.3,307,231.4z"/>
			</g>
		</g>
		<g id="XMLID_155_">
			<g>
				<path id="XMLID_28_" class="st0" d="M549.7,156.4c-2.2-9.6-3.9-19.8-9.3-28.3c-5.9-9.2-12.5-16.8-20.9-23.5
					c-26.8-21.2-70.9-11.4-95.8,7.7c-28.7,21.9-51.1,49.3-56.5,86.2c-3.8,25.5-0.3,51.7,17.1,71.7c17.6,20.3,43.4,25.1,68.9,20.4
					C513.5,279.5,552.3,214.4,549.7,156.4z M440.3,249.5c-23.4-11.6-22.4-35.8-10.8-59c11.6-23.2,37.3-36.7,54.3-28.3
					c16.9,8.4,21.7,37.1,10.1,60.4C482.3,245.8,459.4,259,440.3,249.5z"/>
			</g>
		</g>
	</g>
	<g id="XMLID_130_">
		<g id="XMLID_147_">
			<path class="st1" d="M850.7,129.3c-4.4-3.9-11.1-5.8-20.3-5.8c-9.2,0-18.6,1.3-28.4,3.8c-9.9,2.6-19.1,6.2-27.5,10.6
				c-8.6,4.6-14.5,9.4-17.5,14.5c-2.9,4.4-3,11-0.5,19.7c2.4,8.8,8.4,12.9,17.9,12.3c4.6-0.3,8.5-1.7,11.7-4.2
				c2.6-2.2,5.6-4.9,9-8.3c3.2-3,6.6-5.7,10.1-7.9c3.6-2.4,8.5-3.7,14.8-3.8c1.5,0,3.9,1.4,7.2,4.1c3.1,2.6,5.7,5.8,7.8,9.4
				c2,3.7,3,7.4,2.8,11.1c-0.4,3.9-3.1,6.8-8.3,8.8c-0.8,0.4-1.4,0.5-1.7,0.5c-0.4,0.2-7.7-2.9-22-9c-6.4-2.6-13.3-2.9-20.9-0.6
				c-7.6,2.4-14.4,6.2-20.3,11.6c-6.1,5.5-10.9,12.1-14.4,19.7c-3.3,7.7-4.2,15.6-2.5,23.7c1.7,8.2,6.3,15.2,13.7,21
				c7.3,5.9,15.8,10.6,25.5,14.1c9.6,3.4,19.4,5.5,29.2,6.2c9.8,0.8,18.1,0.2,24.6-1.9c11.9-3.9,20.8-12.3,26.6-25.4
				c5.9-13.2,9.1-27.6,9.6-43.1c0.5-15.7-1.5-31.2-6-46.3C866.3,149.1,859.6,137.4,850.7,129.3z M825.3,242.6
				c-2.3,1.9-4.9,2.8-7.9,2.6c-3.4,0-7.7-0.9-12.8-2.8c-5.2-1.8-8.5-4.5-10-8.1c-1.4-3.4-0.5-6.5,2.6-9.3c3.2-2.8,6.5-4.2,10-4.2
				c3.3,0,7.1,1.7,11.5,5c4,3.2,6.8,6.2,8.1,9.3C828,238.3,827.5,240.7,825.3,242.6z"/>
		</g>
		<g id="XMLID_64_">
			<path class="st1" d="M944.4,216.9c-3.2-0.2-6.7,1.8-10.7,6.1c-4,4.2-6.1,5.1-6.4,2.5c-1.4-9.5-1.5-18.7-0.1-27.6
				c1.3-8.9,2.9-17.5,4.6-25.6c1.7-8.2,3.1-16,4.1-23.4c1-7.4,0.5-14.3-1.5-20.8c-0.9-2.9-3.5-5-7.8-6.4c-4.3-1.4-8.9-2.1-13.8-2
				c-4.9,0-9.4,0.8-13.5,2.3c-4.1,1.5-6.4,3.7-6.8,6.6c-4,25.4-6.4,50.3-7.2,74.7c-0.7,24.4,1.6,48.8,7,73.1c0.9,4.3,6.6,5.9,17,5
				c10.4-0.9,19.1-2.8,26.1-5.7c3.7-1.5,7-5.4,9.7-11.6c2.7-6.2,4.7-12.7,5.7-19.6c1.1-6.9,1.2-13.1,0.2-18.6
				C950.3,220.1,948,217.2,944.4,216.9z"/>
		</g>
		<g id="XMLID_63_">
			<path class="st1" d="M1003.1,150.4c-2.2-11.4-5.5-20.4-9.9-26.9c-1.1-1.6-3.8-2.4-8.2-2.4c-4.4,0-8.8,0.6-13.5,1.8
				c-4.7,1.2-8.8,2.9-12.3,5.1c-3.5,2.2-5.1,4.6-4.7,7.3c3.9,24.8,6,48.1,6.3,69.8c0.3,21.8-1,43-3.9,63.9c-0.6,4.3,1.6,7.3,6.5,8.9
				c4.9,1.7,10.4,2.3,16.6,1.9c6.1-0.5,11.9-1.9,17.3-4.2c5.3-2.4,8.2-5.5,8.6-9.4c1-11.3,1.7-23.9,2.1-37.8
				c0.4-13.8,0.3-27.5-0.4-40.8C1006.7,174.2,1005.3,161.8,1003.1,150.4z"/>
		</g>
		<g id="XMLID_134_">
			<path class="st1" d="M1138,164.2c-4.6-15.2-11.3-26.8-20.2-34.9c-4.4-3.9-11.1-5.8-20.3-5.8c-9.2,0-18.6,1.3-28.4,3.8
				c-9.9,2.6-19.1,6.2-27.5,10.6c-8.6,4.6-14.5,9.4-17.5,14.5c-2.9,4.4-3,11-0.5,19.7c2.4,8.8,8.4,12.9,17.8,12.3
				c4.7-0.3,8.5-1.7,11.7-4.2c2.6-2.2,5.6-4.9,9-8.3c3.3-3,6.6-5.7,10.1-7.9c3.6-2.4,8.5-3.7,14.8-3.8c1.5,0,3.9,1.4,7.2,4.1
				c3.1,2.6,5.7,5.8,7.8,9.4c2,3.7,3,7.4,2.7,11.1c-0.3,3.9-3.1,6.8-8.3,8.8c-0.8,0.4-1.4,0.5-1.7,0.5c-0.4,0.2-7.7-2.9-22.1-9
				c-6.4-2.6-13.3-2.9-20.9-0.6c-7.6,2.4-14.4,6.2-20.3,11.6c-6.1,5.5-10.9,12.1-14.4,19.7c-3.3,7.7-4.2,15.6-2.5,23.7
				c1.7,8.2,6.3,15.2,13.7,21c7.3,5.9,15.8,10.6,25.5,14.1c9.6,3.4,19.4,5.5,29.2,6.2c9.8,0.8,18.1,0.2,24.6-1.9
				c11.9-3.9,20.8-12.3,26.6-25.4c5.9-13.2,9.1-27.6,9.6-43.1C1144.5,194.8,1142.5,179.3,1138,164.2z M1092.4,242.6
				c-2.3,1.9-4.9,2.8-7.9,2.6c-3.4,0-7.7-0.9-12.8-2.8c-5.2-1.8-8.5-4.5-10-8.1c-1.4-3.4-0.5-6.5,2.6-9.3c3.2-2.8,6.5-4.2,10-4.2
				c3.3,0,7.1,1.7,11.5,5c4,3.2,6.7,6.2,8.1,9.3C1095.1,238.3,1094.6,240.7,1092.4,242.6z"/>
		</g>
		<g id="XMLID_60_">
			<path class="st1" d="M707.1,128.1c-34.1-9.6-45.4,15.9-56.1,15.2v-0.3c-0.3,0.1-0.5,0.2-0.8,0.2c-0.2,0-0.5-0.1-0.8-0.2v0.3
				c-10.7,0.7-21.9-24.7-56.1-15.2c-21.6,6-34.3,29.5-34.3,52c0.1,2.2,0.2,4.4,0.5,6.5c3,29.9,13.1,65.5,39.8,82.7
				c15,9.7,41.3,6.1,43.4-15.7c1.9-20.1-28.7-39.7-38-56.1c-11.1-19.6,3.5-43.4,22.9-24.5c3.8,3.7,12.5,23.2,21.8,24.6v0.1
				c0.3,0,0.5,0,0.8-0.1c0.3,0,0.5,0.1,0.8,0.1v-0.1c9.3-1.4,18-20.8,21.8-24.6c19.4-19,34,4.9,22.9,24.5c-9.2,16.4-39.9,36-38,56.1
				c2.1,21.8,28.4,25.4,43.4,15.7c26.7-17.3,36.8-52.8,39.8-82.7c0.2-2.2,0.3-4.3,0.5-6.5C741.5,157.6,728.8,134.1,707.1,128.1z"/>
		</g>
	</g>
	<g id="XMLID_59_">
		<path class="st0" d="M992,75.8c0,17-14,30.8-31.3,30.8s-31.3-13.8-31.3-30.8s14-30.8,31.3-30.8S992,58.8,992,75.8z"/>
	</g>
</g>
</svg>
