<svg version="1.0" id="Calque_1" xmlns="http://www.w3.org/2000/svg" x="0" y="0" viewBox="0 0 108.8 19.4" style="enable-background:new 0 0 108.8 19.4" xml:space="preserve"><style>.st0{fill:#f18903}</style><switch><g><path class="st0" d="m108.5 8.1-4.4 4.3 1.1 6.1c0 .3 0 .5-.1.6-.1.2-.2.2-.4.2-.1 0-.3 0-.5-.1l-5.5-2.9-5.5 2.9c-.2.1-.4.1-.5.1-.2 0-.3-.1-.4-.2-.1-.2-.1-.4-.1-.6l1.1-6.1-4.4-4.3c-.3-.3-.4-.5-.3-.7s.2-.4.6-.4l6.1-.9L98 .5c.2-.3.4-.5.6-.5.2 0 .4.2.6.5l2.7 5.6 6.1.9c.4.1.6.2.7.4s.1.4-.2.7zM86.4 8.1 82 12.4l1.1 6.1c0 .3 0 .5-.1.6-.1.2-.2.2-.4.2-.1 0-.3 0-.5-.1l-5.5-2.9-5.6 2.9c-.2.1-.4.1-.5.1-.2 0-.3-.1-.4-.2-.1-.1-.1-.3 0-.6l1.1-6.1-4.4-4.3c-.3-.3-.4-.5-.3-.7s.2-.4.5-.4l6.1-.9L75.8.5c.3-.3.5-.5.7-.5.2 0 .4.2.6.5l2.7 5.6L86 7c.4.1.6.2.7.4s-.1.4-.3.7zM64.2 8.1l-4.4 4.3 1.1 6.1c0 .3 0 .5-.1.6-.1.2-.2.2-.4.2-.1 0-.3 0-.5-.1l-5.5-2.9-5.5 2.9c-.2.1-.4.1-.5.1-.2 0-.3-.1-.4-.2-.1-.2-.1-.4-.1-.6l1.1-6.1-4.4-4.3c-.3-.3-.4-.5-.3-.7s.3-.4.6-.4l6.1-.9L53.7.5c.3-.3.5-.5.7-.5.2 0 .4.2.6.5l2.7 5.6 6.2.9c.4.1.6.2.7.4s-.1.4-.4.7zM42.1 8.1l-4.4 4.3 1.1 6.1c0 .3 0 .5-.1.6-.1.2-.2.2-.4.2-.1 0-.3 0-.5-.1l-5.5-2.9-5.5 2.9c-.2.1-.4.1-.5.1-.2 0-.3-.1-.4-.2-.1-.2-.1-.4-.1-.6l1.1-6.1-4.4-4.3c-.3-.3-.4-.5-.3-.7 0-.2.2-.4.6-.4l6.1-.9L31.6.5c.2-.3.4-.5.7-.5.2 0 .4.2.6.5l2.7 5.6 6.2.9c.4.1.6.2.7.4s-.1.4-.4.7zM20 8.1l-4.4 4.3 1.1 6.1c0 .3 0 .5-.1.6-.1.2-.2.2-.4.2-.1 0-.3 0-.5-.1l-5.5-2.9-5.5 2.9c-.2.1-.4.1-.5.1-.2 0-.3-.1-.4-.2-.1-.2-.1-.4-.1-.6l1.1-6.1L.3 8.1C0 7.8 0 7.6 0 7.4S.3 7 .7 7l6.1-.9L9.5.5c.2-.3.4-.5.7-.5.2 0 .4.2.6.5l2.7 5.6 6.1.9c.4 0 .6.2.7.4.1.2 0 .4-.3.7z"/></g></switch></svg>